<svg viewBox="0 0 166 76" width="166" height="76" fill="none" xmlns="http://www.w3.org/2000/svg"><path d="M33.92 48.258a11.929 11.929 0 100 23.858 11.929 11.929 0 000-23.858zm0 19.503a7.574 7.574 0 110-15.148 7.574 7.574 0 010 15.148zM134.472 48.258a11.927 11.927 0 00-11.021 7.364 11.93 11.93 0 008.694 16.265 11.927 11.927 0 0012.246-5.072 11.928 11.928 0 00-9.919-18.557zm0 19.503a7.575 7.575 0 110-15.15 7.575 7.575 0 010 15.15zM92.24 11.075a.746.746 0 01.77-.82h.442l1.445.038c.96.038 1.926.082 2.885.139 1.894.107 3.838.252 5.756.378 2.525.177 5.081.423 7.322 1.742a68.53 68.53 0 016.571 4.419c2.032 1.54 4.235 3.155 5.907 5.08.36.436.632.96.979 1.427l-.979 6.16c0 .063-23.486-.158-28.478-.208a1.01 1.01 0 01-1.01-.928c-.297-3.332-1.3-14.574-1.61-17.427zM86.055 29.53a.972.972 0 00.972-.94c.095-3.067.448-14.094.555-17.49a.978.978 0 00-.965-1.01c-10.996-.13-21.984-.187-32.967-.17-11.07 0-22.091.215-33.187.43a1.508 1.508 0 00-1.528 1.325c-.385 3.061-1.325 10.686-1.622 13.949a2.98 2.98 0 002.91 3.25c10.995.221 21.996.341 32.998.505 10.263.158 20.526.165 30.789.152h2.045z" fill="#616161"/><path d="M162.889 49.703c-.316-1.155-1.017-2.158-1.383-3.3-.366-1.143-.221-2.437-.442-3.636a18.126 18.126 0 00-1.218-4.11c-1.262-2.814-3.345-4.506-5.901-6.122a51.442 51.442 0 00-18.191-6.816c-.593-.108-1.534-1.155-2.007-1.515-1.262-.94-2.525-1.894-3.787-2.815a7722.303 7722.303 0 00-10.099-7.41c-4.563-3.314-8.786-6.52-14.7-6.69-.48 0-.922-.077-1.395-.114-6.488-.55-13.116-.417-19.63-.53A1121.51 1121.51 0 0062.19 6.48c-8.464 0-16.947 0-25.405.221l-3.263.082c-2.947 0-5.908.114-8.836.196A131.104 131.104 0 0011.614 8.02a1.666 1.666 0 00-1.408.846 2.005 2.005 0 00-.107.272 2.6 2.6 0 00.076 1.735c.046.311.002.629-.126.916a147.263 147.263 0 00-3.642 18.474 87.394 87.394 0 00-.726 8.275 91.738 91.738 0 00-.101 4.166v2.089a.934.934 0 01-.164.675c-.184.251-.309.54-.366.846-.215 1.401.05 3.036.088 4.456 0 .871.07 1.748.07 2.626l-.436.41c-.896.814-1.616 1.54-1.811 2.79-.177 1.098-.297 2.91.63 3.724.391.294.853.48 1.339.536 3.58.627 7.217.876 10.85.745h4.235c-.044-.467-.07-.94-.07-1.42a13.966 13.966 0 0120.396-12.427 13.967 13.967 0 017.408 14.32H120.638a14.11 14.11 0 01-.127-1.893 13.979 13.979 0 013.984-10.068 13.958 13.958 0 019.981-4.197 13.97 13.97 0 0113.965 14.265c0 .633-.042 1.266-.126 1.894h1.679a45.588 45.588 0 006.274-.72 9.282 9.282 0 004.796-2.102 6.349 6.349 0 001.837-4.033c.234-1.723.455-3.85-.012-5.517zM77.793 33.021l6.33.044M96.425 33.021l6.324.044" stroke="#616161" stroke-width="2" stroke-linecap="round" stroke-linejoin="round"/></svg>
